<svg height="2500" viewBox="0 0 2500 2500" width="2500" xmlns="http://www.w3.org/2000/svg"><path d="m1250 2500c690.35156 0 1250-559.64844 1250-1250 0-690.351562-559.64844-1250-1250-1250-690.351562 0-1250 559.648438-1250 1250 0 690.35156 559.648438 1250 1250 1250zm0-255.09766c-549.462891 0-994.902344-445.43945-994.902344-994.90234 0-549.462891 445.439453-994.902344 994.902344-994.902344 549.46289 0 994.90234 445.439453 994.90234 994.902344 0 549.46289-445.43945 994.90234-994.90234 994.90234zm-10.20508-1696.435543c-331.640623 0-609.697264 232.148437-681.123045 543.369143h334.179687c61.230469-132.656253 193.886718-224.49219 346.943358-224.49219 211.73828 0 382.65625 170.91797 382.65625 382.65625s-170.91797 382.65625-382.65625 382.65625c-153.05664 0-285.712889-91.83594-346.933592-221.94336h-334.189453c71.425781 308.67188 349.492187 540.82031 681.123045 540.82031 387.75391 0 701.5332-313.76953 701.5332-701.5332 0-387.753906-313.76953-701.533203-701.5332-701.533203z" fill="#fff"/></svg>