<svg height="119" viewBox="0 0 454 119" width="454" xmlns="http://www.w3.org/2000/svg" xmlns:xlink="http://www.w3.org/1999/xlink"><mask id="a" fill="#fff"><path d="m.0002.0684h59.233v115.9316h-59.233z" fill="#fff" fill-rule="evenodd"/></mask><mask id="b" fill="#fff"><path d="m.71.1543h66.623v115.8457h-66.623z" fill="#fff" fill-rule="evenodd"/></mask><g fill="none" fill-rule="evenodd"><g fill="#ff2010"><path d="m59.2332.0684h-18.187c-.035 24.729-.07 40.747-.105 65.477-7.814-24.133-15.637-40.11-23.479-65.477h-17.462v115.932c5.894-.839 12.207-1.643 18.108-2.413.017-24.231.034-39.126.05-63.358 8.121 23.851 13.114 37.919 21.211 60.585 6.348-.725 13.322-1.617 19.676-2.262.063-36.161.125-72.323.188-108.484" mask="url(#a)" transform="translate(0 2.327)"/><path d="m127.1629 2.3954h-50.381l-.203 106.957c16.852-1.533 33.724-2.786 50.608-3.759.009-5.213.018-12.706.028-17.918-10.979.675-21.482 1.378-32.423 2.114.019-9.585.038-17.512.057-27.098 7.996-.138 16.44-.017 24.608-.156.01-5.24.02-12.76.03-17.999-8.094.143-16.642.16-24.606.311.019-9.586.037-14.844.056-24.43 5.011-.06 9.921-.068 14.822-.068.861 0 1.721 0 2.582.001h2.569c4.088 0 8.192-.005 12.367-.041.01-5.213-.123-12.702-.114-17.914"/><path d="m210.7244 2.4755c-18.493 0-37.607 0-56.1.002-.008 5.179-.017 12.639-.025 17.817.805-.006 1.609-.007 2.414-.007 2.437 0 4.874.023 7.312.047 2.435.024 4.87.048 7.306.048.624 0 1.249-.002 1.873-.005-.037 28.743-.075 54.995-.112 83.738 5.936-.221 12.287-.407 18.224-.558.027-28.585.054-54.681.08-83.265 6.271-.024 12.75-.043 19.021-.055.002-5.091.005-12.671.007-17.762"/><path d="m278.7953 2.3954h-50.588c-.005 33.559-.01 67.116-.015 100.674 1.956-.008 3.934-.011 5.919-.011 4.045 0 8.121.015 12.105.046-.005-14.241-.009-27.238-.013-41.48.993.003 1.996.005 3.006.005 2.352 0 4.742-.009 7.142-.019s4.81-.02 7.199-.02c2.462 0 4.901.01 7.286.043-.004-5.105-.009-12.7-.014-17.805-2.252-.023-4.553-.031-6.877-.031-2.49 0-5.004.009-7.51.018-2.502.009-4.995.018-7.444.018-.937 0-1.869-.001-2.793-.004-.003-9.156-.005-14.323-.008-23.479 1.978.003 3.951.004 5.917.004 1.996 0 3.986-.001 5.975-.002 2.006-.001 4.011-.002 6.017-.002 4.887 0 9.778.005 14.712.027-.005-5.117-.011-12.865-.016-17.982"/><path d="m290.6029 2.4764c.045 33.882-.118 67.764-.074 101.646 16.174.603 33.17 1.256 49.323 2.373-.01-5.212-.02-12.707-.029-17.919-10.225-.602-20.868-1.323-31.101-1.748-.046-29.017.114-55.335.068-84.352-5.924 0-12.262 0-18.187 0"/><path d="m354.7777 2.4794c.069 35.039.138 70.078.207 105.118 5.926.458 12.057.949 17.978 1.476.021-35.507.07-71.062.002-106.594-5.924 0-12.263 0-18.187 0"/><path d="m2.555.1543c7.273 17.717 13.927 35.484 21.312 54.299-7.675 18.072-15.489 36.025-23.157 53.361 6.352.627 12.923 1.544 19.27 2.251 4.553-11.165 8.694-19.76 13.252-31.226 4.55 12.214 8.685 21.651 13.223 34.259 6.336.822 14.55 2.001 20.878 2.902-7.671-20.506-16.06-41.858-23.774-61.238 7.682-18.2 15.519-35.574 23.498-54.602-6.551 0-13.309-.001-19.859-.002-4.924 11.761-8.312 19.318-13.032 30.514-4.397-11.649-7.346-19.187-11.751-30.516-6.55-.002-13.309-.002-19.86-.002" mask="url(#b)" transform="translate(386 2.327)"/></g><path d="m132.7747 104.1507c-.596-.757-1.18-1.477-1.756-2.158-.577-.68-1.133-1.283-1.671-1.81-1.382-1.634-2.6-3.101-3.656-4.405-1.055-1.301-2.129-2.846-3.219-4.633-.088-1.373-.218-3.681-.39-6.922-.173-3.239-.32-6.795-.439-10.664-.121-3.868-.196-7.81-.228-11.824-.033-4.012.088-7.488.358-10.427.268-2.608.596-5.396.982-8.364.387-2.966.942-5.747 1.664-8.344.724-2.596 1.622-4.888 2.7-6.873 1.075-1.985 2.428-3.339 4.058-4.064.617.508 1.237.868 1.865 1.085.626.217 1.191.347 1.694.388 1.769 1.54 3.429 2.798 4.98 3.775 1.55.977 3.329 1.88 5.335 2.703.101 2.438.048 5.181-.155 8.224-.204 3.046-.44 6.12-.712 9.221-.272 3.103-.547 6.104-.827 9.003-.28 2.9-.457 5.385-.527 7.452-.088 1.665-.119 3.559-.095 5.686.026 1.8.119 3.952.277 6.457.158 2.507.391 5.24.702 8.201 1.009-.573 2.078-1.491 3.209-2.75 1.128-1.26 2.154-2.534 3.071-3.825 1.112-1.501 2.166-3.069 3.163-4.708 1.349-2.215 2.464-4.21 3.346-5.984.881-1.772 1.653-3.581 2.313-5.424.66-1.842 1.321-3.849 1.982-6.022.662-2.17 1.448-4.763 2.357-7.774.849-2.586 1.718-5.342 2.607-8.266.889-2.925 1.825-5.737 2.811-8.439.984-2.701 1.972-5.219 2.965-7.553.99-2.334 1.975-4.192 2.951-5.58 1.059.647 2.264 1.296 3.614 1.953 1.348.657 2.73 1.019 4.142 1.086.749.722 1.455 1.35 2.12 1.885.663.537 1.304 1.058 1.919 1.564.827.703 1.576 1.34 2.25 1.915.673.575 1.306 1.242 1.902 2 .073.64.135 1.486.187 2.539.051 1.055.107 2.211.166 3.468.06 1.259.104 2.541.134 3.845.03 1.306.071 2.568.121 3.787.072 3.675.132 6.451.178 8.327.046 1.878.114 3.339.204 4.383.089 1.045.2 1.921.331 2.627.13.707.347 1.682.648 2.92.226.93.529 1.841.911 2.733.362.816.749 1.645 1.159 2.488.409.845.981 1.589 1.712 2.23l4.533-5.656c1.267-1.539 2.358-3.547 3.274-6.028.915-2.479 1.716-5.259 2.404-8.34.686-3.079 1.297-6.388 1.834-9.924.535-3.535 1.046-7.167 1.535-10.899.328-2.705.677-5.396 1.054-8.073.374-2.676.797-5.241 1.268-7.694.469-2.453.968-4.707 1.495-6.765.525-2.055 1.103-3.817 1.731-5.283 2.412.81 4.534 1.688 6.365 2.638 1.832.951 3.502 2.083 5.012 3.398 1.509 1.316 2.843 2.921 4.001 4.813 1.157 1.893 2.231 4.197 3.219 6.91-.914 3.669-1.693 7.388-2.335 11.155-.643 3.768-1.278 7.574-1.902 11.418-.767 4.947-1.596 9.888-2.489 14.823-.892 4.937-2.051 9.712-3.473 14.324-1.422 4.614-3.216 8.968-5.379 13.064-2.164 4.096-4.9 7.777-8.209 11.044-1.143.031-2.101.141-2.874.329-.854.207-1.541.498-2.066.871-.525.374-.973.81-1.343 1.312-3.535-.699-6.625-2.267-9.268-4.702-2.644-2.435-5.328-5.208-8.054-8.32-.364-.485-.744-.947-1.137-1.385-.395-.437-.813-.89-1.254-1.358l-2.851-3.122-1.699-1.926-1.261 1.907-1.903 2.801-1.056 1.734c-1.856 2.832-3.765 5.614-5.726 8.347-1.962 2.735-4.087 5.302-6.374 7.705-2.29 2.403-4.832 4.519-7.628 6.347-2.797 1.831-5.929 3.208-9.398 4.132-.695-.158-1.323-.293-1.883-.404-.561-.11-1.1-.224-1.621-.344-1.992-.418-3.66-.875-5.011-1.367-1.351-.491-2.999-1.364-4.944-2.614" fill="#fff"/><path d="m132.7747 104.1507c-.596-.757-1.18-1.477-1.756-2.158-.577-.68-1.133-1.283-1.671-1.81-1.382-1.634-2.6-3.101-3.656-4.405-1.055-1.301-2.129-2.846-3.219-4.633-.088-1.373-.218-3.681-.39-6.922-.173-3.239-.32-6.795-.439-10.664-.121-3.868-.196-7.81-.228-11.824-.033-4.012.088-7.488.358-10.427.268-2.608.596-5.396.982-8.364.387-2.966.942-5.747 1.664-8.344.724-2.596 1.622-4.888 2.7-6.873 1.075-1.985 2.428-3.339 4.058-4.064.617.508 1.237.868 1.865 1.085.626.217 1.191.347 1.694.388 1.769 1.54 3.429 2.798 4.98 3.775 1.55.977 3.329 1.88 5.335 2.703.101 2.438.048 5.181-.155 8.224-.204 3.046-.44 6.12-.712 9.221-.272 3.103-.547 6.104-.827 9.003-.28 2.9-.457 5.385-.527 7.452-.088 1.665-.119 3.559-.095 5.686.026 1.8.119 3.952.277 6.457.158 2.507.391 5.24.702 8.201 1.009-.573 2.078-1.491 3.209-2.75 1.128-1.26 2.154-2.534 3.071-3.825 1.112-1.501 2.166-3.069 3.163-4.708 1.349-2.215 2.464-4.21 3.346-5.984.881-1.772 1.653-3.581 2.313-5.424.66-1.842 1.321-3.849 1.982-6.022.662-2.17 1.448-4.763 2.357-7.774.849-2.586 1.718-5.342 2.607-8.266.889-2.925 1.825-5.737 2.811-8.439.984-2.701 1.972-5.219 2.965-7.553.99-2.334 1.975-4.192 2.951-5.58 1.059.647 2.264 1.296 3.614 1.953 1.348.657 2.73 1.019 4.142 1.086.749.722 1.455 1.35 2.12 1.885.663.537 1.304 1.058 1.919 1.564.827.703 1.576 1.34 2.25 1.915.673.575 1.306 1.242 1.902 2 .073.64.135 1.486.187 2.539.051 1.055.107 2.211.166 3.468.06 1.259.104 2.541.134 3.845.03 1.306.071 2.568.121 3.787.072 3.675.132 6.451.178 8.327.046 1.878.114 3.339.204 4.383.089 1.045.2 1.921.331 2.627.13.707.347 1.682.648 2.92.226.93.529 1.841.911 2.733.362.816.749 1.645 1.159 2.488.409.845.981 1.589 1.712 2.23l4.533-5.656c1.267-1.539 2.358-3.547 3.274-6.028.915-2.479 1.716-5.259 2.404-8.34.686-3.079 1.297-6.388 1.834-9.924.535-3.535 1.046-7.167 1.535-10.899.328-2.705.677-5.396 1.054-8.073.374-2.676.797-5.241 1.268-7.694.469-2.453.968-4.707 1.495-6.765.525-2.055 1.103-3.817 1.731-5.283 2.412.81 4.534 1.688 6.365 2.638 1.832.951 3.502 2.083 5.012 3.398 1.509 1.316 2.843 2.921 4.001 4.813 1.157 1.893 2.231 4.197 3.219 6.91-.914 3.669-1.693 7.388-2.335 11.155-.643 3.768-1.278 7.574-1.902 11.418-.767 4.947-1.596 9.888-2.489 14.823-.892 4.937-2.051 9.712-3.473 14.324-1.422 4.614-3.216 8.968-5.379 13.064-2.164 4.096-4.9 7.777-8.209 11.044-1.143.031-2.101.141-2.874.329-.854.207-1.541.498-2.066.871-.525.374-.973.81-1.343 1.312-3.535-.699-6.625-2.267-9.268-4.702-2.644-2.435-5.328-5.208-8.054-8.32-.364-.485-.744-.947-1.137-1.385-.395-.437-.813-.89-1.254-1.358l-2.851-3.122-1.699-1.926-1.261 1.907-1.903 2.801-1.056 1.734c-1.856 2.832-3.765 5.614-5.726 8.347-1.962 2.735-4.087 5.302-6.374 7.705-2.29 2.403-4.832 4.519-7.628 6.347-2.797 1.831-5.929 3.208-9.398 4.132-.695-.158-1.323-.293-1.883-.404-.561-.11-1.1-.224-1.621-.344-1.992-.418-3.66-.875-5.011-1.367-1.351-.491-2.999-1.364-4.944-2.614z" stroke="#ff161f"/></g></svg>